#!OML:ASF E:\Steps\Project 1\Capture day 1\Session 2\Subject.ASF
:FULLY-SPECIFIED
:DEGREES
47
root -1.51881 16.2882 21.5447 -154.646 4.92204 181.184
lowerback -25.408 -3.41617 -5.8243
upperback 0.0383755 -2.59036 0.686589
thorax 14.6818 -1.50857 3.20484
lowerneck 0.128361 -10.0758 -1.22208
upperneck 17.031 -13.1644 2.72914
head 5.39443 -6.00245 0.448502
rclavicle 8.54774e-015 -5.56597e-015
rhumerus -40.9353 -16.7111 -77.7923
rradius 36.2987
rwrist -5.35972
rhand -9.34019 -53.9083
rfingers 7.12502
rthumb 16.6189 -83.2168
lclavicle 8.54774e-015 -5.56597e-015
lhumerus -31.3118 4.15389 81.2087
lradius 26.2962
lwrist -2.36323
lhand -22.1104 -13.7895
lfingers 7.12502
lthumb 4.3022 16.1468
rfemur -27.1718 9.87494 19.5749
rtibia 11.294
rfoot -17.8683 0.866842
rtoes -23.7548
lfemur -26.8171 -7.53714 -20.5906
ltibia 13.3356
lfoot -9.58128 1.60377
ltoes -18.8572
48
root -1.52027 16.2937 21.5522 -154.764 4.95042 181.277
lowerback -25.1342 -3.44793 -5.90058
upperback 0.144417 -2.6539 0.746454
thorax 14.6686 -1.55643 3.29687
lowerneck 0.0422975 -10.142 -1.105
upperneck 16.9436 -13.2619 2.64895
head 5.3704 -6.05603 0.399088
rclavicle -5.1684e-014 -7.95139e-016
rhumerus -40.8684 -16.8126 -77.7821
rradius 36.3013
rwrist -5.17378
rhand -9.16694 -54.3286
rfingers 7.12502
rthumb 16.7857 -83.623
lclavicle -5.1684e-014 -7.95139e-016
lhumerus -31.2539 3.73255 81.3855
lradius 26.4781
lwrist -2.43138
lhand -22.6144 -13.5918
lfingers 7.12502
lthumb 3.81549 16.3538
rfemur -27.128 9.85923 19.6969
rtibia 11.364
rfoot -18.0344 0.811344
rtoes -24.6622
lfemur -26.8686 -7.67297 -20.4305
ltibia 13.7004
lfoot -9.791 1.76534
ltoes -18.302
49
root -1.52078 16.2957 21.5612 -154.683 5.13283 181.46
lowerback -25.1181 -3.43446 -5.86285
upperback 0.244834 -2.66637 0.794945
thorax 14.7817 -1.57198 3.32431
lowerneck -0.201385 -10.1297 -1.08675
upperneck 17.0542 -13.2611 2.65295
head 5.44452 -6.05136 0.381015
rclavicle 2.3059e-014 -2.38542e-015
rhumerus -40.6929 -16.9333 -77.8158
rradius 36.1943
rwrist -5.08307
rhand -9.19948 -54.2406
rfingers 7.12502
rthumb 16.7544 -83.5377
lclavicle 2.3059e-014 -2.38542e-015
lhumerus -31.0765 3.57408 81.4103
lradius 26.5744
lwrist -2.39416
lhand -22.752 -13.9433
lfingers 7.12502
lthumb 3.68257 16.0046
rfemur -27.4811 9.8826 19.8756
rtibia 11.7794
rfoot -18.4443 0.87993
rtoes -26.3504
lfemur -27.1131 -7.49415 -20.2352
ltibia 14.013
lfoot -9.9002 1.77112
ltoes -17.5048
50
root -1.52252 16.2969 21.5708 -154.508 5.47733 181.466
lowerback -25.0509 -3.42756 -5.98319
upperback 0.200281 -2.61849 0.760798
thorax 14.6896 -1.55343 3.37465
lowerneck -0.417669 -10.1482 -0.910291
upperneck 17.4843 -13.2486 2.36283
head 5.58303 -6.03117 0.246518
rclavicle 2.26615e-014 -4.77083e-015
rhumerus -40.7723 -16.9966 -77.8436
rradius 36.2395
rwrist -5.07882
rhand -9.10993 -53.9958
rfingers 7.12502
rthumb 16.8406 -83.2855
lclavicle 2.26615e-014 -4.77083e-015
lhumerus -31.1696 3.37526 81.3433
lradius 26.8037
lwrist -2.44094
lhand -22.8109 -14.3081
lfingers 7.12502
lthumb 3.62567 15.6408
rfemur -28.1527 10.0948 19.7288
rtibia 12.6316
rfoot -19.3375 0.880549
rtoes -28.1577
lfemur -27.4268 -7.17793 -20.3204
ltibia 14.243
lfoot -9.95091 1.74577
ltoes -17.8227
51
root -1.52564 16.2979 21.5813 -154.402 5.81265 181.417
lowerback -24.6958 -3.47707 -6.32054
upperback 0.0141578 -2.61512 0.836419
thorax 14.2889 -1.56301 3.66966
lowerneck -0.464475 -10.269 -0.605791
upperneck 17.9064 -13.3044 1.6394
head 5.65312 -6.066 -0.030822
rclavicle 9.93923e-016 1.51076e-014
rhumerus -41.1079 -16.7844 -77.6797
rradius 36.3798
rwrist -5.20516
rhand -8.99939 -53.976
rfingers 7.12502
rthumb 16.947 -83.2567
lclavicle 9.93923e-016 1.51076e-014
lhumerus -31.5754 3.30305 81.3628
lradius 27.255
lwrist -2.02562
lhand -22.0682 -14.1389
lfingers 7.12502
lthumb 4.34292 15.7965
rfemur -28.7819 10.3538 19.4774
rtibia 13.5948
rfoot -20.6197 0.912994
rtoes -29.6327
lfemur -27.6712 -7.04957 -20.437
ltibia 14.485
lfoot -10.0014 1.85525
ltoes -17.6834
52
root -1.52767 16.3016 21.5926 -154.469 6.11805 181.565
lowerback -24.4061 -3.43514 -6.35089
upperback 0.0731935 -2.589 0.865288
thorax 14.1954 -1.56061 3.73456
lowerneck -0.513728 -10.325 -0.40043
upperneck 17.8659 -13.3661 1.40264
head 5.61867 -6.10456 -0.136963
rclavicle -1.51076e-014 3.97569e-015
rhumerus -41.102 -16.7555 -77.7136
rradius 36.4034
rwrist -5.31167
rhand -9.09151 -53.2706
rfingers 7.12502
rthumb 16.8583 -82.5589
lclavicle -1.51076e-014 3.97569e-015
lhumerus -31.5802 3.08477 81.3383
lradius 27.496
lwrist -1.64364
lhand -21.9478 -14.3333
lfingers 7.12502
lthumb 4.4592 15.5997
rfemur -29.2738 10.457 19.5413
rtibia 14.7142
rfoot -22.0531 1.02627
rtoes -31.1634
lfemur -27.7357 -6.97288 -20.2945
ltibia 14.7563
lfoot -10.1787 2.07338
ltoes -17.5482
53
root -1.52588 16.3014 21.61 -154.38 6.5214 181.813
lowerback -24.1675 -3.39092 -6.41313
upperback 0.0897996 -2.55647 0.979213
thorax 14.0855 -1.55864 3.91818
lowerneck -0.514908 -10.3479 -0.45242
upperneck 17.6049 -13.4292 1.50433
head 5.54868 -6.14956 -0.0959538
rclavicle 1.70955e-014 3.18055e-015
rhumerus -40.9784 -16.659 -77.7018
rradius 36.3906
rwrist -5.4025
rhand -9.16341 -52.3291
rfingers 7.12502
rthumb 16.7891 -81.6233
lclavicle 1.70955e-014 3.18055e-015
lhumerus -31.5305 2.96914 81.4311
lradius 27.5968
lwrist -1.57606
lhand -22.6122 -14.6515
lfingers 7.12502
lthumb 3.81756 15.294
rfemur -30.1792 10.5875 19.7432
rtibia 16.2948
rfoot -23.436 0.996632
rtoes -33.3193
lfemur -28.0365 -6.8027 -19.9966
ltibia 15.1168
lfoot -10.4586 2.28108
ltoes -15.9072
54
root -1.52298 16.3031 21.6268 -154.332 6.9421 181.991
lowerback -23.9915 -3.3676 -6.58151
upperback 0.162231 -2.51414 1.06102
thorax 14.0795 -1.56346 4.12663
lowerneck -0.512957 -10.3384 -0.471273
upperneck 17.3547 -13.4487 1.61398
head 5.47931 -6.16944 -0.0551445
rclavicle -1.23246e-014 1.82882e-014
rhumerus -40.726 -16.5605 -77.7925
rradius 36.3843
rwrist -5.34081
rhand -9.25265 -52.5618
rfingers 7.12502
rthumb 16.7032 -81.8632
lclavicle -1.23246e-014 1.82882e-014
lhumerus -31.5097 2.88345 81.4723
lradius 27.9092
lwrist -1.38878
lhand -22.7059 -14.256
lfingers 7.12502
lthumb 3.72714 15.6912
rfemur -31.094 10.7715 19.8359
rtibia 18.0013
rfoot -24.5973 0.976391
rtoes -35.2495
lfemur -28.2399 -6.87011 -19.7299
ltibia 15.3623
lfoot -10.6535 2.67967
ltoes -13.4592
55
root -1.51952 16.3023 21.6429 -154.168 7.4318 182.122
lowerback -24.1073 -3.31096 -6.72172
upperback 0.270041 -2.39355 1.03838
thorax 14.2633 -1.52978 4.22124
lowerneck -0.469601 -10.31 -0.443359
upperneck 17.0719 -13.4593 1.84427
head 5.39825 -6.1748 0.0185086
rclavicle 2.70347e-014 -1.98785e-014
rhumerus -40.465 -16.643 -77.9989
rradius 36.3944
rwrist -5.13564
rhand -9.42929 -53.0682
rfingers 7.12502
rthumb 16.5332 -82.3838
lclavicle 2.70347e-014 -1.98785e-014
lhumerus -31.3838 2.63522 81.4094
lradius 28.269
lwrist -0.932557
lhand -22.3299 -13.7027
lfingers 7.12502
lthumb 4.09018 16.2378
rfemur -32.1681 10.8041 19.8738
rtibia 19.7477
rfoot -25.4659 0.930749
rtoes -37.7526
lfemur -28.5196 -6.83012 -19.5674
ltibia 15.5391
lfoot -10.7256 3.15224
ltoes -13.8066
56
root -1.51616 16.3016 21.6595 -154.055 7.90916 182.218
lowerback -23.7814 -3.27855 -6.93046
upperback 0.147639 -2.31356 1.02868
thorax 13.9324 -1.49353 4.36684
lowerneck -0.350621 -10.3268 -0.428867
upperneck 17.0343 -13.4978 1.97897
head 5.37594 -6.18543 0.062327
rclavicle -7.7526e-015 1.90833e-014
rhumerus -40.6084 -16.5459 -78.0964
rradius 36.4234
rwrist -5.15405
rhand -9.67275 -52.8483
rfingers 7.12502
rthumb 16.2988 -82.1833
lclavicle -7.7526e-015 1.90833e-014
lhumerus -31.6225 2.36204 81.3344
lradius 28.4074
lwrist -0.651921
lhand -22.754 -14.2621
lfingers 7.12502
lthumb 3.68067 15.6859
rfemur -33.2519 10.6252 19.9653
rtibia 21.7057
rfoot -26.2716 0.485337
rtoes -40.6609
lfemur -28.7626 -6.70344 -19.4707
ltibia 15.7368
lfoot -10.8159 3.49774
ltoes -14.2328
57
root -1.5111 16.3 21.6732 -154.012 8.41353 182.296
lowerback -23.6006 -3.26184 -7.1724
upperback 0.183652 -2.24088 1.00395
thorax 13.873 -1.47901 4.50569
lowerneck -0.443998 -10.3747 -0.346707
upperneck 17.0778 -13.5867 2.05448
head 5.40637 -6.21881 0.0614378
rclavicle -1.68967e-014 3.18055e-015
rhumerus -40.4956 -16.5652 -78.2391
rradius 36.4207
rwrist -5.23247
rhand -9.83181 -52.9306
rfingers 7.12502
rthumb 16.1456 -82.2781
lclavicle -1.68967e-014 3.18055e-015
lhumerus -31.648 2.11527 81.2335
lradius 28.6078
lwrist -0.0801867
lhand -22.9316 -14.78
lfingers 7.12502
lthumb 3.50919 15.1709
rfemur -34.4655 10.3103 20.1232
rtibia 24.2332
rfoot -27.2974 -0.160678
rtoes -42.4933
lfemur -28.9316 -6.58034 -19.4006
ltibia 15.9974
lfoot -11.0817 3.72305
ltoes -12.9667
58
root -1.50518 16.2975 21.6875 -154.041 8.97682 182.417
lowerback -23.4262 -3.21806 -7.34165
upperback 0.271572 -2.15122 0.948245
thorax 13.8707 -1.45516 4.57168
lowerneck -0.515921 -10.3592 -0.251427
upperneck 17.0338 -13.594 2.1371
head 5.4041 -6.21581 0.0685344
rclavicle 4.94974e-014 -1.11319e-014
rhumerus -40.4661 -16.656 -78.4162
rradius 36.6077
rwrist -5.27892
rhand -9.48562 -53.5399
rfingers 7.12502
rthumb 16.4789 -82.86
lclavicle 4.94974e-014 -1.11319e-014
lhumerus -31.708 1.75652 81.0721
lradius 28.9293
lwrist 0.511591
lhand -22.8464 -14.7526
lfingers 7.12502
lthumb 3.59143 15.1969
rfemur -35.69 9.85866 20.3996
rtibia 27.1101
rfoot -28.2474 -0.494343
rtoes -42.5967
lfemur -28.9525 -6.30113 -19.3578
ltibia 16.2093
lfoot -11.3358 3.90954
ltoes -12.5877
59
root -1.50117 16.2969 21.704 -154.225 9.43467 182.455
lowerback -22.9239 -3.19376 -7.55986
upperback 0.29779 -2.10065 0.870926
thorax 13.6155 -1.44096 4.63213
lowerneck -0.584765 -10.2376 -0.142228
upperneck 17.0329 -13.4475 2.1782
head 5.40822 -6.13542 0.0685608
rclavicle 1.37161e-014 9.54166e-015
rhumerus -40.633 -16.5499 -78.641
rradius 36.9272
rwrist -5.44049
rhand -9.10283 -53.9347
rfingers 7.12502
rthumb 16.8474 -83.2238
lclavicle 1.37161e-014 9.54166e-015
lhumerus -31.9736 1.34049 80.885
lradius 29.3001
lwrist 0.957628
lhand -23.0176 -14.4439
lfingers 7.12502
lthumb 3.42615 15.5084
rfemur -36.6488 9.37006 20.5712
rtibia 29.8172
rfoot -28.9785 -1.36726
rtoes -42.7246
lfemur -28.7971 -6.05453 -19.4185
ltibia 16.3129
lfoot -11.4658 4.10893
ltoes -12.5485
60
root -1.49555 16.2984 21.7169 -154.495 9.83051 182.404
lowerback -22.4691 -3.18262 -7.86434
upperback 0.434629 -2.04312 0.771432
thorax 13.5187 -1.43972 4.71629
lowerneck -0.578828 -10.3893 -0.0444436
upperneck 16.7216 -13.7176 2.46495
head 5.32859 -6.26302 0.133547
rclavicle -5.96354e-016 1.90833e-014
rhumerus -40.5458 -16.4238 -78.9454
rradius 37.1099
rwrist -5.68485
rhand -9.28114 -53.6082
rfingers 7.12502
rthumb 16.6758 -82.9118
lclavicle -5.96354e-016 1.90833e-014
lhumerus -32.0181 1.11015 80.6641
lradius 29.5235
lwrist 1.18263
lhand -23.3715 -14.5043
lfingers 7.12502
lthumb 3.08432 15.4531
rfemur -37.4955 9.23188 20.53
rtibia 32.507
rfoot -29.7184 -1.98661
rtoes -42.2731
lfemur -28.5756 -5.90793 -19.543
ltibia 16.437
lfoot -11.5038 4.32229
ltoes -12.4673
61
root -1.48868 16.3002 21.7313 -154.624 10.2543 182.378
lowerback -22.2046 -3.19299 -8.19665
upperback 0.567791 -1.99617 0.729993
thorax 13.5307 -1.45023 4.87674
lowerneck -0.41952 -10.4529 -0.0835653
upperneck 16.2646 -13.8557 2.7828
head 5.18811 -6.34068 0.247258
rclavicle 2.26615e-014 4.37326e-014
rhumerus -40.3571 -16.3421 -79.1652
rradius 37.2581
rwrist -5.87924
rhand -9.46763 -53.8343
rfingers 7.12502
rthumb 16.4963 -83.153
lclavicle 2.26615e-014 4.37326e-014
lhumerus -31.926 1.03625 80.4883
lradius 29.5961
lwrist 1.22204
lhand -23.5854 -14.7274
lfingers 7.12502
lthumb 2.87774 15.2329
rfemur -38.5571 8.2579 20.6855
rtibia 35.3998
rfoot -30.2742 -1.60695
rtoes -41.1882
lfemur -28.5424 -5.9092 -19.564
ltibia 16.6154
lfoot -11.5134 4.64967
ltoes -12.5167
